<svg width="128" height="128" viewBox="0 0 128 128" xmlns="http://www.w3.org/2000/svg">
  <rect width="128" height="128" rx="20" fill="#0077b5"/>
  <path d="M40 88H56V48H40V88ZM48 41.5C53.2 41.5 56 38.8 56 35.5C56 32.2 53.2 29.5 48 29.5C42.8 29.5 40 32.2 40 35.5C40 38.8 42.8 41.5 48 41.5ZM66 88H82V62.5C82 61 82.2 59.5 82.8 58.5C84.4 56.5 86.8 54.5 90.5 54.5C95.2 54.5 97 58 97 65V88H113V63.5C113 51.5 106.8 46.5 97.8 46.5C89.5 46.5 85.8 50.5 83.5 54H83.2V48H67.2C67.5 51.5 67.2 88 67.2 88H83.2V88H66Z" fill="white"/>
</svg>
